<svg width="210" height="30" viewBox="0 0 210 23" xmlns="http://www.w3.org/2000/svg" xmlns:xlink="http://www.w3.org/1999/xlink"><title>DT Logo</title><defs><path id="a" d="M0 22.824h209.76V0H0z"/></defs><g fill="none" fill-rule="evenodd"><path d="M5.956 17.157h3.161c3.83 0 5.166-2.943 5.166-5.948 0-3.006-1.489-5.573-5.166-5.573h-3.16v11.521zM9.117.47c7.506 0 11.123 4.759 11.123 10.8 0 6.043-3.495 11.115-11.123 11.115H0V.47h9.117zm20.331 4.946v5.26h4.438c1.58 0 2.278-1.22 2.278-2.536 0-1.377-.76-2.724-2.34-2.724h-4.376zm13.676 16.97H36.5l-4.954-7.107h-2.097v7.107h-6.017V.47h10.393c5.44 0 8.267 3.601 8.267 7.546 0 2.693-.912 4.978-4.498 6.606l5.531 7.39v.375zm19.723 0H45.83V.47h16.593v5.197H51.755v3.13h10.06v5.042h-10.06v3.318h11.092zm13.342-15.78l-2.735 6.982h5.44l-2.705-6.982zm4.74 12.18h-9.511l-1.398 3.6h-6.382L73.18.47h6.078l9.512 21.916h-6.442l-1.398-3.6zM108.25 9.33l-5.44 6.638h-1.063L96.43 9.36v13.025h-5.957V.47h6.291l5.592 7.42 5.592-7.42h6.26v21.916h-5.956z" fill="#4A5058"/><path fill="#B5038D" d="M116.723 2.912V.47h17.14v2.442h-7.264v19.474h-2.613V2.912zm34.705 4.633c.03-2.191-1.489-4.634-4.558-4.634h-7.02v9.143h6.898c3.191 0 4.68-2.035 4.68-4.509zm-6.413 6.951h-5.166v7.89h-2.644V.47h9.665c4.801 0 7.202 3.444 7.202 7.013.03 3.319-1.732 6.418-6.108 6.794l7.02 8.109h-3.343l-6.626-7.89z"/><mask id="b" fill="#fff"><use xlink:href="#a"/></mask><path fill="#B5038D" mask="url(#b)" d="M158.843 22.386h2.644V.47h-2.644zm17.961-19.38h-7.05v9.768h7.05c6.26 0 6.26-9.768 0-9.768zm-7.05 19.38h-2.614V.47h9.664c9.785 0 9.785 14.81 0 14.841h-7.05v7.076zm25.527-19.944c-2.705 0-5.592 1.096-5.592 3.757 0 2.38 2.644 3.068 5.774 3.6 4.255.69 8.449 1.566 8.449 6.513-.03 4.915-4.589 6.513-8.661 6.513-3.769 0-7.355-1.41-8.996-5.073l2.188-1.315c1.368 2.599 4.224 3.851 6.838 3.851 2.583 0 6.017-.845 6.017-4.07.03-2.724-2.948-3.507-6.139-4.007-4.102-.658-8.083-1.628-8.083-6.074C187.016 1.565 191.543 0 195.22 0c3.16 0 6.17.658 8.054 3.976l-2.006 1.284c-1.155-1.91-3.616-2.787-5.987-2.818m8.724-1.875V.229h2.366v.338h-1.003v2.688h-.36V.567zm4.329 1.737h-.076L207.193.765v2.49h-.36V.229h.435l1.032 1.556L209.324.23h.436v3.026h-.361V.775z"/></g></svg>