<svg id="Layer_1" data-name="Layer 1" xmlns="http://www.w3.org/2000/svg" viewBox="0 0 721.66 144.66"><defs><style>.cls-1{fill:#008ccc;}.cls-2{fill:#192958;}</style></defs><path class="cls-1" d="M91.18,237.07a77.16,77.16,0,0,1-28.13-4.85,53.32,53.32,0,0,1-20.62-13.9A50.7,50.7,0,0,1,31,196.4q-3.27-12.87-.41-28.73a82.14,82.14,0,0,1,10.78-28.73,86,86,0,0,1,73.45-41,78.27,78.27,0,0,1,28.47,5q13,5,20.17,13.81L131.9,147.89a24.33,24.33,0,0,0-8.3-7.74c-3.39-1.93-7.81-2.89-13.29-2.89a30.11,30.11,0,0,0-10.92,2.14,34.91,34.91,0,0,0-10.16,6.16,40.79,40.79,0,0,0-8.08,9.61,35.81,35.81,0,0,0-4.68,12.5q-2.49,13.8,3.12,22.48t21.48,8.67a39.2,39.2,0,0,0,5.87-.46,16.63,16.63,0,0,0,4.91-1.4l1.82-10.08H92.4L98.7,152h60.63l-13,72.19a83.93,83.93,0,0,1-11.65,5.13,124,124,0,0,1-13.6,4c-4.74,1.11-9.66,2-14.76,2.7A114.19,114.19,0,0,1,91.18,237.07Z" transform="translate(-29.24 -92.78)"/><path class="cls-1" d="M273.83,184.27a61.53,61.53,0,0,1-8.64,22.58,64.65,64.65,0,0,1-15.33,16.69,66.94,66.94,0,0,1-19.77,10.35,70,70,0,0,1-22,3.55,58.29,58.29,0,0,1-20.54-3.55,41.31,41.31,0,0,1-16-10.35,39.39,39.39,0,0,1-9.2-16.69q-2.79-9.9-.5-22.58A60.28,60.28,0,0,1,170.49,162a64.28,64.28,0,0,1,15.2-16.51,65.11,65.11,0,0,1,19.65-10.17,71.18,71.18,0,0,1,21.8-3.45,60.62,60.62,0,0,1,20.74,3.45A41.86,41.86,0,0,1,264,145.47,38.48,38.48,0,0,1,273.29,162Q276.08,171.77,273.83,184.27Zm-53.26-16a17.62,17.62,0,0,0-12.34,4.85,20.06,20.06,0,0,0-6.44,11.38q-1.24,6.9,2.36,11.75t10.69,4.85a17.94,17.94,0,0,0,12.44-4.85,20.36,20.36,0,0,0,6.6-11.75,13.93,13.93,0,0,0-2.52-11.38Q227.65,168.24,220.57,168.23Z" transform="translate(-29.24 -92.78)"/><path class="cls-2" d="M401.92,92.8H319.77l-.18.52c2.88.75,5.9,1.7,4.83,6.83a44.83,44.83,0,0,1-3,7.78L271.9,220.49c-.77,1.9-1.94,4.75-2.14,5.69-.92,4.37,2.18,5.89,6.92,5.89h34.63l21.22-48.2H364c11.39,0,20.81-1.52,29.05-9.1,18.34-16.89,29.1-46.49,31.57-58.25C428.9,96.22,417.48,92.8,401.92,92.8Zm-35.08,59.58a18.63,18.63,0,0,1-11.2,3.6h-11l15.57-35.29h9.29c5.7,0,12.53,0,10.66,8.92C378.84,135.87,373.68,146.88,366.84,152.38Z" transform="translate(-29.24 -92.78)"/><path class="cls-2" d="M515.27,148.2a32.16,32.16,0,0,0,2.35-6.64c3.94-18.78-14.8-19-25.81-19H441l-7.53,16.89c-2.79,6.07,1.59,8.72,5,8.72h29.41c4,0,6.64,0,5.88,3.61-1.87,8.92-5.63,9.67-10.94,9.67H434.5c-29.78,0-42.9,40.8-45.05,51-4,19,13.18,21.25,22.29,21.25,13.09,0,16.79-1.33,23.8-8.53L445.47,215l.3.38L443,221.44c-1.79,4-1.55,7.4-.61,8.35,1.16,1.71,3.12,2.28,7.49,2.28h28.55ZM450.93,203l-5.94-.14c-5.13,0-11.69-.38-10.53-5.88.67-3.23,3.46-16.51,17.31-16.51h9.87Z" transform="translate(-29.24 -92.78)"/><path class="cls-2" d="M573.39,149.15h23.9c8.16,0,9.6-3.22,12.78-10.24l7.22-16.32H566.63c-10.06,0-17,1.52-24.36,7.59C534,137,526.49,152,523.9,164.33c-2.26,10.82,3.8,15.37,9.54,17.84l18.14,7.58c3.33,1.33,4.57,2.66,3.81,6.27-.8,3.79-3.35,5.12-10.56,5.12l-39.53-.08-8.44,19.81A30.12,30.12,0,0,0,495,226c-.79,3.8,2.71,6.08,7.65,6.08h44.59c14,0,22.18-2.66,29.91-8.73,10.25-8.16,18.1-27.51,20.29-38,2-9.68-3.54-13.85-9.92-16.89l-15.9-7.4c-2.61-1.13-6.58-3-6-5.88A7.43,7.43,0,0,1,573.39,149.15Z" transform="translate(-29.24 -92.78)"/><path class="cls-2" d="M671.87,149.15h23.91c8.16,0,9.59-3.22,12.77-10.24l7.22-16.32H665.11c-10.05,0-17,1.52-24.36,7.59C632.49,137,625,152,622.39,164.33c-2.27,10.82,3.8,15.37,9.54,17.84l18.14,7.58c3.32,1.33,4.56,2.66,3.81,6.27-.8,3.79-3.35,5.12-10.57,5.12l-39.52-.08-8.45,19.81a30.91,30.91,0,0,0-1.83,5.12c-.8,3.8,2.71,6.08,7.64,6.08h44.59c14,0,22.19-2.66,29.91-8.73,10.25-8.16,18.11-27.51,20.3-38,2-9.68-3.54-13.85-9.93-16.89l-15.9-7.4c-2.61-1.13-6.57-3-6-5.88A7.42,7.42,0,0,1,671.87,149.15Z" transform="translate(-29.24 -92.78)"/><polygon class="cls-2" points="274.29 12.94 279.93 0 175.83 0 175.22 0.52 274.29 12.94"/><polygon class="cls-2" points="264.86 34.5 270.5 21.56 188.31 20.76 187.61 21.37 264.86 34.5"/><path class="cls-2" d="M750.9,136.3A15.28,15.28,0,1,1,735.63,121,15.33,15.33,0,0,1,750.9,136.3Zm-28.73,0a13.46,13.46,0,1,0,13.46-13.45A13.5,13.5,0,0,0,722.17,136.3Zm7.88-8.32h5.82c1.21,0,5.58,0,5.58,4.12a3.92,3.92,0,0,1-3.07,4c1.69.41,2.26,1.13,2.5,3.15a23.87,23.87,0,0,0,1,5.18h-2.34a20.11,20.11,0,0,1-.81-4.29c-.24-2.5-.89-3.15-3.56-3.15h-2.82v7.44h-2.27Zm2.27,7h3.55c1.13,0,3.23,0,3.23-2.5s-2-2.59-3.23-2.59h-3.55Z" transform="translate(-29.24 -92.78)"/></svg>