<?xml version="1.0" encoding="UTF-8"?><svg id="Layer_2" xmlns="http://www.w3.org/2000/svg" viewBox="0 0 693.13 258"><defs><style>.cls-1{fill:none;}.cls-2{fill:#005cb9;}.cls-3{fill:#ea0029;}.cls-4,.cls-5{fill:#fff;}.cls-6{fill:#ffd100;}.cls-5{stroke:#fff;stroke-miterlimit:10;stroke-width:2px;}</style></defs><g id="Layer_1-2"><g><path d="m157.88,255.24c-7.75,0-14.05-6.3-14.05-14.05v-37.05h-20.11c-20.59,0-35.9-5.14-45.52-15.28-4.16-4.38-7.03-9.44-8.52-15.04-5.29-2.41-9.8-5.55-13.42-9.37-4.16-4.38-7.03-9.44-8.52-15.04-5.29-2.42-9.8-5.57-13.42-9.37-4.16-4.39-7.03-9.44-8.52-15.05-5.29-2.41-9.8-5.55-13.42-9.37-9.77-10.3-9.71-21.71-9.6-23.89-.05-.87-.37-10.11,3.55-14.23,1.25-1.31,2.85-2,4.62-2h169.99C192.45,32.6,259.89,2.76,345.85,2.76s153.4,29.84,164.9,72.73h171.41c1.77,0,3.36.69,4.61,2,3.66,3.83,3.63,12.13,3.57,14.08v.15c.12,2.18.19,13.59-9.58,23.89-3.61,3.8-8.12,6.95-13.42,9.37-1.49,5.6-4.35,10.66-8.52,15.05-3.62,3.81-8.13,6.96-13.42,9.37-1.49,5.6-4.35,10.66-8.52,15.04-3.62,3.81-8.13,6.97-13.42,9.37-1.49,5.6-4.35,10.66-8.52,15.04-9.62,10.14-24.94,15.28-45.52,15.28h-24.63v37.05c0,7.75-6.3,14.05-14.05,14.05H157.88Z"/><path class="cls-5" d="m345.85,4.52c86.54,0,153.45,30.57,163.54,72.73h172.78c7.1,0,6.41,14.56,6.41,14.56h.03c.11,2.06.17,12.81-9.12,22.59-3.67,3.87-8.24,6.97-13.64,9.32-1.03,4.32-3.31,9.84-8.3,15.1-3.67,3.87-8.23,6.97-13.64,9.32-1.03,4.31-3.31,9.84-8.3,15.09-3.67,3.87-8.24,6.97-13.64,9.32-1.03,4.32-3.31,9.84-8.3,15.09-9.28,9.78-24.16,14.73-44.24,14.73h-26.39v38.82c0,6.77-5.51,12.29-12.29,12.29H157.88c-6.77,0-12.28-5.51-12.28-12.29v-38.82h-21.88c-20.08,0-34.96-4.95-44.24-14.73-4.99-5.26-7.27-10.78-8.3-15.09-5.4-2.35-9.96-5.45-13.63-9.32-4.99-5.25-7.27-10.78-8.3-15.09-5.4-2.35-9.96-5.45-13.63-9.32-4.99-5.25-7.27-10.78-8.3-15.1-5.4-2.35-9.97-5.45-13.64-9.32-9.29-9.78-9.22-20.53-9.12-22.59,0,0-.69-14.56,6.41-14.56h171.36C192.41,35.09,259.31,4.52,345.85,4.52m0-3.52c-85.89,0-153.52,29.76-166.23,72.73H10.96c-2.26,0-4.3.88-5.89,2.55-4.21,4.42-4.13,13.35-4.05,15.52-.11,2.7.05,14.45,10.09,25.02,3.6,3.79,8.04,6.95,13.22,9.41,1.62,5.57,4.55,10.61,8.72,15.01,3.6,3.79,8.04,6.95,13.21,9.41,1.63,5.57,4.56,10.61,8.73,15,3.6,3.79,8.04,6.95,13.21,9.41,1.62,5.57,4.55,10.61,8.72,15,9.97,10.5,25.71,15.83,46.79,15.83h18.36v35.29c0,8.72,7.09,15.81,15.81,15.81h372.86c8.72,0,15.81-7.09,15.81-15.81v-35.29h22.87c21.08,0,36.82-5.33,46.79-15.83,4.17-4.4,7.1-9.44,8.72-15,5.18-2.46,9.62-5.62,13.22-9.41,4.17-4.39,7.1-9.43,8.72-15,5.17-2.46,9.61-5.62,13.21-9.41,4.17-4.4,7.1-9.44,8.72-15.01,5.18-2.46,9.62-5.62,13.22-9.41,10.28-10.83,10.2-22.89,10.08-25.2v-.13c.07-2.6-.02-10.98-4.06-15.22-1.59-1.67-3.62-2.55-5.89-2.55h-170.07C499.37,30.76,431.74,1,345.85,1h0Z"/><path class="cls-3" d="m489.91,88.4c0,34.17-65.97,63.04-144.06,63.04s-144.06-28.87-144.06-63.04,65.97-63.04,144.06-63.04,144.06,28.87,144.06,63.04ZM345.85,12.2c-88.16,0-157.22,33.47-157.22,76.2s69.06,76.2,157.22,76.2,157.22-33.47,157.22-76.2S434.01,12.2,345.85,12.2Z"/><path class="cls-1" d="m464.46,165.1v.76s7.39,0,7.39,0c.2-.17.41-.35.61-.49l3.22-2.76h-11.99c.5.73.77,1.59.77,2.49Z"/><path class="cls-1" d="m214.04,165.65l3.49-3.05h-4.72c.49.91.92,1.91,1.23,3.05Z"/><path class="cls-1" d="m257.46,188.38l.83-1.36h-1.56l.73,1.36Z"/><g><path class="cls-2" d="m673.26,92.61h-162.7c-.65,7.39-3.01,14.48-6.9,21.17h131.58c39.12,0,38.02-21.17,38.02-21.17Z"/><path class="cls-2" d="m188.04,113.77c-3.89-6.68-6.25-13.77-6.9-21.17H19.89s-1.1,21.17,38.02,21.17h130.14Z"/><path class="cls-2" d="m148.6,135.25l6.86-5.81c.66-.74,1.38-1.24,2.06-1.57,4.13-1.98,8.53,1.04,9.71,1.94l12.3,8.37h31.88c-8.96-6.38-16.16-13.48-21.3-21.16H41.82s-1.1,21.16,38.02,21.16h66.6c.56-1.35,1.34-2.29,2.15-2.94Z"/><path class="cls-2" d="m501.59,117.03c-5.14,7.68-12.35,14.78-21.3,21.16h30.12l11.76-8c1.17-.9,5.58-3.94,9.71-1.95,1.94.93,4.24,3.18,4.24,8.61v1.34h77.18c39.12,0,38.02-21.16,38.02-21.16h-149.72Z"/><path class="cls-2" d="m462.69,161.56c.39.29.73.65,1,1.04h11.99l3.35-2.88c.61-.58,1.22-1.04,1.76-1.38l24.85-16.91h-30.15c-13.6,8.72-30.64,15.92-50.29,21.16h27.94l5.67-1.72c1.33-.41,2.78-.15,3.9.68Z"/><path class="cls-2" d="m591.36,162.6c39.12,0,38.01-21.16,38.01-21.16h-93.26v21.16h55.24Z"/><path class="cls-2" d="m145.68,141.44H63.76s-1.1,21.16,38.02,21.16h43.82v-19.54c0-.58.03-1.11.08-1.62Z"/><path class="cls-2" d="m208.33,157.81c1.32.74,3.15,2.36,4.48,4.79h4.72l2.44-2.13c.99-.94,2.36-1.41,3.73-1.17l17.85,3.03c.33.06.66.15.97.28h23.99c-19.66-5.24-36.69-12.45-50.29-21.16h-31.91l24.36,16.58c-.11-.07-.22-.14-.33-.2Z"/><path class="cls-2" d="m85.7,165.86s-1.1,21.17,38.02,21.17h21.88v-21.17h-59.9Z"/><path class="cls-2" d="m299.05,168.99c-5.37-.61-12.24-1.76-18.84-3.14h-34.84l11.36,21.17h1.56l4.86-7.94c.25-.41.56-.75.91-1.05h-.02s7.64-6.55,7.64-6.55h0c1.2-1.03,2.92-1.38,4.47-.77l13.5,5.28c1.21.47,2.15,1.46,2.56,2.69l6.82-9.68Z"/><path class="cls-2" d="m180.32,172.46h-4.01v14.56h7.52v-11.05c0-1.93-1.57-3.51-3.51-3.51Z"/><path class="cls-2" d="m214.55,185.16c0,.67-.16,1.29-.43,1.86h4.96l-4.53-8.72v6.86Z"/><path class="cls-2" d="m415.43,174.46c.44-.36.92-.67,1.49-.84l25.52-7.76h-30.95c-3.98.83-8.07,1.57-12.22,2.24l8.33,13.05,7.82-6.71v.03Z"/><path class="cls-2" d="m505.41,185.8v-9.47c0-1.93-1.57-3.51-3.51-3.51h-4.02v2.83s-.01,1.68-.01,1.66c0,2.59,1.02,6.98,7.53,8.49Z"/><path class="cls-2" d="m464.41,179.83c-.01,2.24-1.7,4.11-3.92,4.35l-3.75.4v1.83c0,.21-.04.41-.07.61h10.82c-.21-1.62-.32-3.23-.32-4.78v-5.9c0-5.11,2.5-8.62,4.68-10.48h-7.4l-.05,13.97Z"/><path class="cls-2" d="m531.73,184.75h-3.29v2.19s0,.05,0,.08h40.99c39.12,0,38.01-21.17,38.01-21.17h-71.32v14.51c0,2.42-1.96,4.39-4.39,4.39Z"/></g><path d="m481.07,158.18c-.09.05-.19.11-.28.17l-.05.03c.1-.07.22-.14.33-.2Z"/><g><path class="cls-6" d="m386.84,129.07c-2.51-.74-5.45-1.9-3.84-4.65,1.77-3.03,2.69-6.08,1.96-8.12-3.8-10.59-14.36-10.73-14.36-10.73,0,0-.48,6.02-4.57,12.18-5.72-3.77-12.39-8.72-18.94-14.73,10.76-5.32,25.41-14.3,21.13-22.04,0,0-2.32-10.34-25.22-11.24-35.01-1.37-20.39,22.21-20.39,22.21,0,0,1.65,3.09,6.15,8.19-12.98,5.16-25.33,11.92-23.79,25.34,1.26,10.93,17.74,14.9,38.1,14.17,11.62-.42,22.14-2.78,28.73-6.89,2.54,1.44,3.49,1.97,6.28,3.42,0,0,4.15,2.45,10.37,2.54,6.22.09,11.2-3.45,11.84-8.2,0,0-6.87.49-13.46-1.46Zm-47.51-49.46c8.87-1.28,22.36,1.65,14.63,9.05-2.9,2.78-8.09,5-14.04,7.26-1.48-1.6-2.93-3.26-4.33-4.98-4.48-5.49-5.12-10.06,3.75-11.34Zm-8.32,50.82c-14.8-1.54-13.26-14.45,5.32-22.59,5.42,5.01,12.77,10.89,22.54,17.21-5.88,4.06-14.68,6.77-27.86,5.39Z"/><path class="cls-6" d="m403.9,226.14l-26.08.99c-2.3-.2-4.09-2.09-4.09-4.43v-41.45c0-.36-.15-.71-.4-.96-.25-.25-.6-.4-.95-.4h-13.66c-.36,0-.7.14-.96.4-.25.25-.4.6-.4.96v60.43c0,.36.14.7.4.96.25.25.6.4.96.4h45.24c.36,0,.7-.14.96-.4.26-.26.4-.6.4-.96v-14.18c0-.36-.15-.72-.42-.97-.26-.26-.62-.39-.99-.38Z"/><path class="cls-6" d="m288.57,178.81l-13.5-5.28c-.61-.24-1.31,0-1.65.55l-14.43,23.56-16.98-31.63c-.2-.36-.56-.62-.96-.69l-17.85-3.03c-.51-.09-1.02.12-1.32.54-.3.42-.35.96-.11,1.42l25.8,49.68v27.76c0,.36.14.7.4.96.26.25.6.4.96.4h15.18c.36,0,.7-.14.96-.4.25-.26.4-.59.4-.96v-22.12l23.79-38.79c.21-.34.26-.76.13-1.13-.13-.38-.41-.69-.79-.83Z"/><path class="cls-6" d="m338.17,180.06h-26.85c-7.93,0-14.37,6.45-14.38,14.38v34.18c0,7.93,6.45,14.38,14.38,14.38h26.85c.36,0,.7-.14.96-.4.25-.26.4-.59.4-.96v-13.17c0-.36-.15-.7-.4-.96-.25-.25-.6-.4-.96-.4h-20.23c-2.21-.18-4.03-2.08-4.03-4.43v-22.33c0-2.37,1.84-4.28,4.19-4.45h20.08c.36,0,.7-.13.96-.39.25-.26.4-.59.4-.96v-13.16c0-.36-.15-.71-.4-.96-.25-.25-.6-.4-.96-.4Z"/><path class="cls-6" d="m206.85,160.47l-41.45-28.22s-2.2-1.92-4.9-2c-1.06-.03-2.33.46-3.09,1.59-.76,1.11-1.09,2.59-1.1,4.65v97.03c0,5.11,4.14,9.25,9.25,9.25h36.71c5.11,0,9.24-4.14,9.24-9.25v-26.83c0-.36-.14-.71-.39-.96-.25-.25-.6-.4-.96-.4h-14.26c-.36,0-.7.14-.96.4-.25.25-.4.6-.4.96v14.76c0,3.61-2.93,6.54-6.55,6.54h-8.18c-3.62,0-6.54-2.93-6.55-6.54v-52.06c0-3.61,2.93-6.54,6.55-6.54h8.18c3.61,0,6.54,2.93,6.55,6.54v15.77c0,.36.14.7.4.96.26.26.6.4.96.4h14.26c.36,0,.7-.14.96-.4.25-.25.39-.6.39-.96v-15.77c-.01-6.25-4.5-8.84-4.66-8.92Z"/><path class="cls-6" d="m464.77,224.95l-29.86,4.18v-15.6h18.8c.36,0,.7-.14.96-.39.25-.26.39-.59.39-.96v-12.06c0-.36-.15-.71-.39-.96-.25-.25-.6-.39-.96-.39h-18.8v-14.9l25.26-2.7c.68-.08,1.2-.65,1.21-1.34l.06-14.73c0-.43-.2-.83-.54-1.09-.35-.26-.79-.33-1.2-.21l-41.88,12.73c-.57.17-.96.69-.96,1.29v63.84c0,.36.14.7.4.96.25.25.6.4.96.4h46.75c.36,0,.7-.14.96-.4.25-.26.4-.6.4-.96v-15.36c0-.39-.17-.76-.46-1.02-.29-.25-.69-.38-1.07-.32Z"/><path class="cls-6" d="m506.43,189.08c-11.41-1.74-11.48-10.02-11.59-11.77v-1.65s-1.34,0-1.34,0h1.35v-5.9c0-3.61,2.93-6.54,6.55-6.54h8.18c3.62,0,6.53,2.93,6.54,6.54v10.61c0,.36.14.7.39.96.25.25.6.39.96.39h14.26c.36,0,.7-.14.96-.39.25-.26.39-.6.39-.96v-43.52c0-2.06-.34-3.55-1.11-4.65-.75-1.12-2.03-1.62-3.09-1.59-2.7.08-4.87,2.03-4.99,2.07l-41.46,28.21c-.06.02-4.55,2.61-4.56,8.86v5.93c-.08,9.36,4.63,27.15,26.33,30.35,11.54,1.77,11.79,9.42,11.91,10.91h0s0,.09,0,.13v2.6s0,2.15,0,2.15c-.01,3.61-2.93,6.54-6.54,6.54h-8.18c-3.62,0-6.54-2.93-6.55-6.54v-2.7c0-.35-.14-.7-.39-.96-.25-.25-.6-.39-.96-.39h-14.26c-.36,0-.71.14-.96.39-.25.25-.39.6-.39.96v14.76c0,5.11,4.14,9.25,9.25,9.25h36.7c5.11,0,9.25-4.14,9.25-9.25v-14.21l.03-1.45c0-.22,0-.43,0-.64.06-8.88-5.65-25.41-26.69-28.5Z"/><path class="cls-6" d="m468.31,82.55c-1.47-16.8-23.34-32.03-58.51-40.75-24.19-6-48.02-8.5-49.03-8.61-.31-.03-.62.07-.85.28-.23.21-.36.51-.36.82v15.45c0,.56.42,1.03.98,1.09,5.25.57,10.6,1.29,15.89,2.13.33.05,1.87.41,1.87,2.76v44.1c0,.42.24.8.61.99,3.65,1.82,8.55,5.49,11.15,12.67.35.98,1.01,5.14-.13,9.24-.09.33-.02.68.18.95.2.27.52.43.86.44h5.13c.3.01.58-.1.79-.3.21-.21.33-.49.33-.79V58.5c0-.37.05-1.03.38-1.28.31-.24.87-.16,1.05-.12,26.78,5.58,44.04,14.21,44.04,22.02,0,.06-.15.97-.53,1.3-4.59,3.96-15.39,7.07-32.65,4.2-.32-.05-.64.04-.89.25-.25.21-.38.51-.38.84v15.25c0,.56.41,1.03.97,1.09,6.06.72,40.78.13,54.27-10.82,3.81-3.09,5.12-5.45,4.83-8.68Z"/><path class="cls-6" d="m335.33,33.26c-4.16.45-26.07,3-48.44,8.54-7.92,1.96-15.14,4.15-21.48,6.5-.43.16-.72.57-.72,1.03v16.5c0,.37.18.71.49.91.3.2.69.24,1.03.1,8.08-3.38,16.86-6.2,26.86-8.62.58-.17,1.55-.26,1.95.03.06.05.26.2.26.8l.04,45.23c0-.09.03-.16.05-.24-.02.1-.05.19-.04.3,0,.19.19,4.74-2.33,6.81-2.72,2.23-14.14,2.15-24.97-.55-18.47-4.6-25.52-7.82-25.27-11.13.26-3.39,5.49-5.41,17.51-6.74.55-.06.97-.52.97-1.07l.17-12.28c0-.32-.12-.61-.36-.83-.23-.21-.55-.31-.86-.28-26.62,2.96-40.11,10.48-40.11,22.34,0,8.95,17.44,16.06,35.67,21.34,17.39,5.03,36.67,7.98,43.35,7.41,1.36-.11.57-1.9.43-2.91-1.12-10.12,3.53-18.61,13.83-25.23.32-.2.5-.55.5-.92v-45.02c0-1.16.98-1.42,1.3-1.48,6.91-1.19,13.78-2.16,20.42-2.9.55-.06.98-.53.98-1.09v-15.45c0-.31-.13-.61-.36-.81-.23-.21-.55-.31-.85-.28Zm-38.91,69.93s-.05-.01-.08,0c0,0,0,0,.01,0,.02,0,.04,0,.07,0h0Z"/></g><path class="cls-4" d="m564.62,231.14c6.45,0,11.71,5.25,11.71,11.71s-5.26,11.71-11.71,11.71-11.71-5.26-11.71-11.71,5.26-11.71,11.71-11.71Zm8.06,11.71c0-5.35-3.32-8.67-8.06-8.67s-8.06,3.31-8.06,8.67,3.31,8.66,8.06,8.66,8.06-3.32,8.06-8.66Zm-12.82-6.21h4.72c3.31,0,5.34.83,5.34,3.82,0,2.37-1.37,3.23-3.39,3.32l3.22,5.47h-3.08l-2.87-5.31h-1.08v5.31h-2.87v-12.6Zm2.87,5.13h2.45c1.17,0,1.7-.38,1.7-1.61s-.69-1.38-1.7-1.38h-2.45v2.99Z"/></g></g></svg>
